<?xml version="1.0" standalone="no"?>
<!DOCTYPE svg PUBLIC "-//W3C//DTD SVG 20010904//EN"
 "http://www.w3.org/TR/2001/REC-SVG-20010904/DTD/svg10.dtd">
<svg version="1.0" xmlns="http://www.w3.org/2000/svg"
 width="260.000000pt" height="260.000000pt" viewBox="0 0 260.000000 260.000000"
 preserveAspectRatio="xMidYMid meet">
<metadata>
Created by potrace 1.11, written by Peter Selinger 2001-2013
</metadata>
<g transform="translate(0.000000,260.000000) scale(0.100000,-0.100000)"
fill="#000000" stroke="none">
<path d="M1115 2424 c-38 -8 -79 -16 -90 -18 -71 -14 -220 -76 -310 -130 -165
-98 -324 -266 -422 -446 -34 -62 -89 -202 -98 -246 -3 -16 -7 -40 -10 -54 -2
-14 -9 -47 -14 -75 -14 -73 -6 -318 13 -397 89 -370 321 -655 658 -807 286
-130 643 -129 933 4 354 161 620 520 663 895 11 96 7 266 -7 342 -7 37 -13 70
-12 73 2 12 -64 186 -91 240 -157 311 -448 536 -792 612 -95 21 -330 25 -421
7z m420 -173 c355 -89 629 -361 721 -716 35 -135 38 -328 6 -455 -110 -447
-488 -757 -932 -763 -183 -3 -299 22 -456 98 -229 110 -395 294 -494 545 -11
27 -22 60 -24 72 -2 13 -11 54 -19 91 -22 102 -16 300 12 407 90 340 348 613
668 706 162 47 367 53 518 15z"/>
<path d="M1240 1421 c-53 -28 -75 -64 -75 -124 0 -86 56 -140 145 -141 49 0
105 38 124 84 30 74 -10 167 -82 188 -53 16 -71 15 -112 -7z"/>
</g>
</svg>
